<mxfile host="app.diagrams.net" modified="2024-04-06T10:55:28.654Z" agent="Mozilla/5.0 (Windows NT 10.0; Win64; x64) AppleWebKit/537.36 (KHTML, like Gecko) Chrome/123.0.0.0 Safari/537.36 Edg/123.0.0.0" etag="CKqLHM2_Z5PBbynPEj4D" version="24.2.2" type="github">
  <diagram id="R2lEEEUBdFMjLlhIrx00" name="Page-1">
    <mxGraphModel dx="1992" dy="1138" grid="1" gridSize="10" guides="1" tooltips="1" connect="1" arrows="1" fold="1" page="1" pageScale="1" pageWidth="3300" pageHeight="4681" math="0" shadow="0" extFonts="Permanent Marker^https://fonts.googleapis.com/css?family=Permanent+Marker">
      <root>
        <mxCell id="0" />
        <mxCell id="1" parent="0" />
        <mxCell id="iUGONKCu862hK9h3Vl7b-9" value="Flight" style="whiteSpace=wrap;html=1;align=center;" parent="1" vertex="1">
          <mxGeometry x="1240" y="1610" width="100" height="40" as="geometry" />
        </mxCell>
        <mxCell id="iUGONKCu862hK9h3Vl7b-10" value="Route" style="whiteSpace=wrap;html=1;align=center;" parent="1" vertex="1">
          <mxGeometry x="1620" y="1610" width="100" height="40" as="geometry" />
        </mxCell>
        <mxCell id="iUGONKCu862hK9h3Vl7b-37" style="edgeStyle=orthogonalEdgeStyle;rounded=0;orthogonalLoop=1;jettySize=auto;html=1;exitX=1;exitY=0.5;exitDx=0;exitDy=0;entryX=0;entryY=0.5;entryDx=0;entryDy=0;" parent="1" source="iUGONKCu862hK9h3Vl7b-11" target="iUGONKCu862hK9h3Vl7b-35" edge="1">
          <mxGeometry relative="1" as="geometry">
            <Array as="points">
              <mxPoint x="1840" y="1850" />
              <mxPoint x="1840" y="1780" />
            </Array>
          </mxGeometry>
        </mxCell>
        <mxCell id="iUGONKCu862hK9h3Vl7b-11" value="Location" style="whiteSpace=wrap;html=1;align=center;" parent="1" vertex="1">
          <mxGeometry x="1620" y="1830" width="100" height="40" as="geometry" />
        </mxCell>
        <mxCell id="iUGONKCu862hK9h3Vl7b-73" style="edgeStyle=orthogonalEdgeStyle;rounded=0;orthogonalLoop=1;jettySize=auto;html=1;exitX=0;exitY=0.5;exitDx=0;exitDy=0;entryX=1;entryY=0.5;entryDx=0;entryDy=0;endArrow=classic;endFill=1;" parent="1" source="iUGONKCu862hK9h3Vl7b-12" target="iUGONKCu862hK9h3Vl7b-71" edge="1">
          <mxGeometry relative="1" as="geometry" />
        </mxCell>
        <mxCell id="HLWwBx_t6MF1yC-M5vPN-52" style="edgeStyle=orthogonalEdgeStyle;rounded=0;orthogonalLoop=1;jettySize=auto;html=1;exitX=1;exitY=0.5;exitDx=0;exitDy=0;entryX=0.5;entryY=1;entryDx=0;entryDy=0;endArrow=none;endFill=0;" edge="1" parent="1" source="iUGONKCu862hK9h3Vl7b-12" target="HLWwBx_t6MF1yC-M5vPN-51">
          <mxGeometry relative="1" as="geometry" />
        </mxCell>
        <mxCell id="HLWwBx_t6MF1yC-M5vPN-168" style="rounded=0;orthogonalLoop=1;jettySize=auto;html=1;exitX=1;exitY=0;exitDx=0;exitDy=0;entryX=0;entryY=1;entryDx=0;entryDy=0;endArrow=none;endFill=0;" edge="1" parent="1" source="iUGONKCu862hK9h3Vl7b-12" target="HLWwBx_t6MF1yC-M5vPN-45">
          <mxGeometry relative="1" as="geometry" />
        </mxCell>
        <mxCell id="iUGONKCu862hK9h3Vl7b-12" value="Ticket" style="whiteSpace=wrap;html=1;align=center;" parent="1" vertex="1">
          <mxGeometry x="1020" y="1300" width="100" height="40" as="geometry" />
        </mxCell>
        <mxCell id="iUGONKCu862hK9h3Vl7b-13" value="Customer" style="whiteSpace=wrap;html=1;align=center;" parent="1" vertex="1">
          <mxGeometry x="820" y="1460" width="100" height="40" as="geometry" />
        </mxCell>
        <mxCell id="iUGONKCu862hK9h3Vl7b-16" value="Aircraft" style="whiteSpace=wrap;html=1;align=center;" parent="1" vertex="1">
          <mxGeometry x="1470" y="1320" width="100" height="40" as="geometry" />
        </mxCell>
        <mxCell id="HLWwBx_t6MF1yC-M5vPN-53" style="edgeStyle=orthogonalEdgeStyle;rounded=0;orthogonalLoop=1;jettySize=auto;html=1;exitX=0;exitY=0.5;exitDx=0;exitDy=0;entryX=1;entryY=0.5;entryDx=0;entryDy=0;endArrow=none;endFill=0;" edge="1" parent="1" source="iUGONKCu862hK9h3Vl7b-17" target="HLWwBx_t6MF1yC-M5vPN-51">
          <mxGeometry relative="1" as="geometry" />
        </mxCell>
        <mxCell id="iUGONKCu862hK9h3Vl7b-17" value="Aircraft model" style="whiteSpace=wrap;html=1;align=center;" parent="1" vertex="1">
          <mxGeometry x="1470" y="1070" width="100" height="40" as="geometry" />
        </mxCell>
        <mxCell id="iUGONKCu862hK9h3Vl7b-25" style="edgeStyle=orthogonalEdgeStyle;rounded=0;orthogonalLoop=1;jettySize=auto;html=1;exitDx=0;exitDy=0;entryX=0.5;entryY=0;entryDx=0;entryDy=0;" parent="1" source="iUGONKCu862hK9h3Vl7b-29" target="iUGONKCu862hK9h3Vl7b-23" edge="1">
          <mxGeometry relative="1" as="geometry">
            <Array as="points">
              <mxPoint x="850" y="1940" />
            </Array>
          </mxGeometry>
        </mxCell>
        <mxCell id="HLWwBx_t6MF1yC-M5vPN-169" style="rounded=0;orthogonalLoop=1;jettySize=auto;html=1;exitX=0;exitY=0;exitDx=0;exitDy=0;entryX=1;entryY=1;entryDx=0;entryDy=0;endArrow=none;endFill=0;" edge="1" parent="1" source="iUGONKCu862hK9h3Vl7b-22" target="HLWwBx_t6MF1yC-M5vPN-69">
          <mxGeometry relative="1" as="geometry" />
        </mxCell>
        <mxCell id="iUGONKCu862hK9h3Vl7b-22" value="Employee" style="whiteSpace=wrap;html=1;align=center;" parent="1" vertex="1">
          <mxGeometry x="930" y="1830" width="100" height="40" as="geometry" />
        </mxCell>
        <mxCell id="iUGONKCu862hK9h3Vl7b-23" value="FIight attendant" style="whiteSpace=wrap;html=1;align=center;" parent="1" vertex="1">
          <mxGeometry x="800" y="2010" width="100" height="40" as="geometry" />
        </mxCell>
        <mxCell id="iUGONKCu862hK9h3Vl7b-28" style="edgeStyle=orthogonalEdgeStyle;rounded=0;orthogonalLoop=1;jettySize=auto;html=1;exitX=0.5;exitY=0;exitDx=0;exitDy=0;endArrow=none;endFill=0;startArrow=classic;startFill=1;" parent="1" source="iUGONKCu862hK9h3Vl7b-24" edge="1">
          <mxGeometry relative="1" as="geometry">
            <mxPoint x="980" y="1870" as="targetPoint" />
          </mxGeometry>
        </mxCell>
        <mxCell id="iUGONKCu862hK9h3Vl7b-78" style="edgeStyle=orthogonalEdgeStyle;rounded=0;orthogonalLoop=1;jettySize=auto;html=1;exitX=0.5;exitY=1;exitDx=0;exitDy=0;entryX=0.5;entryY=0;entryDx=0;entryDy=0;endArrow=classic;endFill=1;" parent="1" source="iUGONKCu862hK9h3Vl7b-24" target="iUGONKCu862hK9h3Vl7b-76" edge="1">
          <mxGeometry relative="1" as="geometry" />
        </mxCell>
        <mxCell id="iUGONKCu862hK9h3Vl7b-24" value="Pilot" style="whiteSpace=wrap;html=1;align=center;" parent="1" vertex="1">
          <mxGeometry x="1070" y="2010" width="100" height="40" as="geometry" />
        </mxCell>
        <mxCell id="iUGONKCu862hK9h3Vl7b-30" value="" style="edgeStyle=orthogonalEdgeStyle;rounded=0;orthogonalLoop=1;jettySize=auto;html=1;exitX=0.5;exitY=1;exitDx=0;exitDy=0;entryDx=0;entryDy=0;" parent="1" source="iUGONKCu862hK9h3Vl7b-22" target="iUGONKCu862hK9h3Vl7b-29" edge="1">
          <mxGeometry relative="1" as="geometry">
            <mxPoint x="980" y="1870" as="sourcePoint" />
            <mxPoint x="850" y="2010" as="targetPoint" />
            <Array as="points">
              <mxPoint x="980" y="1940" />
            </Array>
          </mxGeometry>
        </mxCell>
        <mxCell id="HLWwBx_t6MF1yC-M5vPN-70" value="overlap" style="edgeLabel;html=1;align=center;verticalAlign=middle;resizable=0;points=[];fontSize=15;" vertex="1" connectable="0" parent="iUGONKCu862hK9h3Vl7b-30">
          <mxGeometry x="-0.2332" relative="1" as="geometry">
            <mxPoint as="offset" />
          </mxGeometry>
        </mxCell>
        <mxCell id="iUGONKCu862hK9h3Vl7b-29" value="" style="shape=waypoint;sketch=0;fillStyle=solid;size=6;pointerEvents=1;points=[];fillColor=none;resizable=0;rotatable=0;perimeter=centerPerimeter;snapToPoint=1;fontStyle=1;html=1;" parent="1" vertex="1">
          <mxGeometry x="970" y="1930" width="20" height="20" as="geometry" />
        </mxCell>
        <mxCell id="iUGONKCu862hK9h3Vl7b-35" value="Local" style="whiteSpace=wrap;html=1;align=center;" parent="1" vertex="1">
          <mxGeometry x="1890" y="1760" width="100" height="40" as="geometry" />
        </mxCell>
        <mxCell id="iUGONKCu862hK9h3Vl7b-38" style="edgeStyle=orthogonalEdgeStyle;rounded=0;orthogonalLoop=1;jettySize=auto;html=1;exitX=0;exitY=0.5;exitDx=0;exitDy=0;entryX=1;entryY=0.5;entryDx=0;entryDy=0;startArrow=classic;startFill=1;endArrow=none;endFill=0;" parent="1" source="iUGONKCu862hK9h3Vl7b-36" target="iUGONKCu862hK9h3Vl7b-11" edge="1">
          <mxGeometry relative="1" as="geometry">
            <Array as="points">
              <mxPoint x="1840" y="1930" />
              <mxPoint x="1840" y="1850" />
            </Array>
          </mxGeometry>
        </mxCell>
        <mxCell id="HLWwBx_t6MF1yC-M5vPN-24" value="disjoin" style="edgeLabel;html=1;align=center;verticalAlign=middle;resizable=0;points=[];fontSize=15;" vertex="1" connectable="0" parent="iUGONKCu862hK9h3Vl7b-38">
          <mxGeometry x="0.5388" relative="1" as="geometry">
            <mxPoint x="-1" as="offset" />
          </mxGeometry>
        </mxCell>
        <mxCell id="iUGONKCu862hK9h3Vl7b-36" value="International" style="whiteSpace=wrap;html=1;align=center;" parent="1" vertex="1">
          <mxGeometry x="1890" y="1910" width="100" height="40" as="geometry" />
        </mxCell>
        <mxCell id="iUGONKCu862hK9h3Vl7b-48" value="" style="shape=waypoint;sketch=0;fillStyle=solid;size=6;pointerEvents=1;points=[];fillColor=none;resizable=0;rotatable=0;perimeter=centerPerimeter;snapToPoint=1;" parent="1" vertex="1">
          <mxGeometry x="1830" y="1840" width="20" height="20" as="geometry" />
        </mxCell>
        <mxCell id="HLWwBx_t6MF1yC-M5vPN-61" style="edgeStyle=orthogonalEdgeStyle;rounded=0;orthogonalLoop=1;jettySize=auto;html=1;exitX=0.5;exitY=0;exitDx=0;exitDy=0;entryX=0.5;entryY=1;entryDx=0;entryDy=0;endArrow=none;endFill=0;" edge="1" parent="1" source="iUGONKCu862hK9h3Vl7b-63" target="HLWwBx_t6MF1yC-M5vPN-59">
          <mxGeometry relative="1" as="geometry" />
        </mxCell>
        <mxCell id="iUGONKCu862hK9h3Vl7b-63" value="Meal" style="shape=ext;margin=3;double=1;whiteSpace=wrap;html=1;align=center;" parent="1" vertex="1">
          <mxGeometry x="820" y="1150" width="100" height="40" as="geometry" />
        </mxCell>
        <mxCell id="iUGONKCu862hK9h3Vl7b-74" style="edgeStyle=orthogonalEdgeStyle;rounded=0;orthogonalLoop=1;jettySize=auto;html=1;exitX=1;exitY=0.5;exitDx=0;exitDy=0;entryX=0;entryY=0.5;entryDx=0;entryDy=0;endArrow=none;endFill=0;startArrow=classic;startFill=1;" parent="1" source="iUGONKCu862hK9h3Vl7b-70" target="iUGONKCu862hK9h3Vl7b-12" edge="1">
          <mxGeometry relative="1" as="geometry" />
        </mxCell>
        <mxCell id="iUGONKCu862hK9h3Vl7b-70" value="Economy" style="whiteSpace=wrap;html=1;align=center;" parent="1" vertex="1">
          <mxGeometry x="490" y="1205" width="100" height="40" as="geometry" />
        </mxCell>
        <mxCell id="iUGONKCu862hK9h3Vl7b-71" value="Business" style="whiteSpace=wrap;html=1;align=center;" parent="1" vertex="1">
          <mxGeometry x="490" y="1300" width="100" height="40" as="geometry" />
        </mxCell>
        <mxCell id="iUGONKCu862hK9h3Vl7b-75" style="edgeStyle=orthogonalEdgeStyle;rounded=0;orthogonalLoop=1;jettySize=auto;html=1;exitX=1;exitY=0.5;exitDx=0;exitDy=0;entryX=0;entryY=0.5;entryDx=0;entryDy=0;endArrow=none;endFill=0;startArrow=classic;startFill=1;" parent="1" source="iUGONKCu862hK9h3Vl7b-72" target="iUGONKCu862hK9h3Vl7b-12" edge="1">
          <mxGeometry relative="1" as="geometry" />
        </mxCell>
        <mxCell id="HLWwBx_t6MF1yC-M5vPN-58" value="&lt;font style=&quot;font-size: 15px;&quot;&gt;disjoin&lt;/font&gt;" style="edgeLabel;html=1;align=center;verticalAlign=middle;resizable=0;points=[];" vertex="1" connectable="0" parent="iUGONKCu862hK9h3Vl7b-75">
          <mxGeometry x="0.3546" y="3" relative="1" as="geometry">
            <mxPoint as="offset" />
          </mxGeometry>
        </mxCell>
        <mxCell id="iUGONKCu862hK9h3Vl7b-72" value="FIrst" style="whiteSpace=wrap;html=1;align=center;" parent="1" vertex="1">
          <mxGeometry x="490" y="1395" width="100" height="40" as="geometry" />
        </mxCell>
        <mxCell id="iUGONKCu862hK9h3Vl7b-76" value="Captain" style="whiteSpace=wrap;html=1;align=center;" parent="1" vertex="1">
          <mxGeometry x="940" y="2190" width="100" height="40" as="geometry" />
        </mxCell>
        <mxCell id="iUGONKCu862hK9h3Vl7b-79" style="edgeStyle=orthogonalEdgeStyle;rounded=0;orthogonalLoop=1;jettySize=auto;html=1;exitDx=0;exitDy=0;endArrow=none;endFill=0;" parent="1" source="iUGONKCu862hK9h3Vl7b-85" edge="1">
          <mxGeometry relative="1" as="geometry">
            <mxPoint x="1120" y="2050" as="targetPoint" />
          </mxGeometry>
        </mxCell>
        <mxCell id="HLWwBx_t6MF1yC-M5vPN-71" value="&lt;font style=&quot;font-size: 15px;&quot;&gt;disjoin&lt;/font&gt;" style="edgeLabel;html=1;align=center;verticalAlign=middle;resizable=0;points=[];" vertex="1" connectable="0" parent="iUGONKCu862hK9h3Vl7b-79">
          <mxGeometry x="-0.0768" relative="1" as="geometry">
            <mxPoint y="-3" as="offset" />
          </mxGeometry>
        </mxCell>
        <mxCell id="iUGONKCu862hK9h3Vl7b-77" value="Officer" style="whiteSpace=wrap;html=1;align=center;" parent="1" vertex="1">
          <mxGeometry x="1210" y="2190" width="100" height="40" as="geometry" />
        </mxCell>
        <mxCell id="iUGONKCu862hK9h3Vl7b-84" value="" style="edgeStyle=orthogonalEdgeStyle;rounded=0;orthogonalLoop=1;jettySize=auto;html=1;exitX=0.5;exitY=0;exitDx=0;exitDy=0;endArrow=none;endFill=0;startArrow=classic;startFill=1;" parent="1" source="iUGONKCu862hK9h3Vl7b-77" target="iUGONKCu862hK9h3Vl7b-85" edge="1">
          <mxGeometry relative="1" as="geometry">
            <mxPoint x="1120" y="2050" as="targetPoint" />
            <mxPoint x="1260" y="2190" as="sourcePoint" />
            <Array as="points">
              <mxPoint x="1260" y="2120" />
            </Array>
          </mxGeometry>
        </mxCell>
        <mxCell id="iUGONKCu862hK9h3Vl7b-85" value="" style="shape=waypoint;sketch=0;fillStyle=solid;size=6;pointerEvents=1;points=[];fillColor=none;resizable=0;rotatable=0;perimeter=centerPerimeter;snapToPoint=1;" parent="1" vertex="1">
          <mxGeometry x="1110" y="2110" width="20" height="20" as="geometry" />
        </mxCell>
        <mxCell id="HLWwBx_t6MF1yC-M5vPN-164" style="edgeStyle=orthogonalEdgeStyle;rounded=0;orthogonalLoop=1;jettySize=auto;html=1;exitX=0;exitY=0.5;exitDx=0;exitDy=0;entryX=0.75;entryY=1;entryDx=0;entryDy=0;endArrow=none;endFill=0;" edge="1" parent="1" source="HLWwBx_t6MF1yC-M5vPN-8" target="iUGONKCu862hK9h3Vl7b-9">
          <mxGeometry relative="1" as="geometry" />
        </mxCell>
        <mxCell id="HLWwBx_t6MF1yC-M5vPN-8" value="&lt;u&gt;9 digit flight id&lt;/u&gt;" style="ellipse;whiteSpace=wrap;html=1;align=center;" vertex="1" parent="1">
          <mxGeometry x="1360" y="1680" width="100" height="40" as="geometry" />
        </mxCell>
        <mxCell id="HLWwBx_t6MF1yC-M5vPN-9" value="intended departure D&amp;amp;T" style="ellipse;whiteSpace=wrap;html=1;align=center;" vertex="1" parent="1">
          <mxGeometry x="1360" y="1720" width="100" height="40" as="geometry" />
        </mxCell>
        <mxCell id="HLWwBx_t6MF1yC-M5vPN-10" value="planned speed" style="ellipse;whiteSpace=wrap;html=1;align=center;" vertex="1" parent="1">
          <mxGeometry x="1360" y="1760" width="100" height="40" as="geometry" />
        </mxCell>
        <mxCell id="HLWwBx_t6MF1yC-M5vPN-12" value="average height" style="ellipse;whiteSpace=wrap;html=1;align=center;" vertex="1" parent="1">
          <mxGeometry x="1360" y="1800" width="100" height="40" as="geometry" />
        </mxCell>
        <mxCell id="HLWwBx_t6MF1yC-M5vPN-13" value="journey duration" style="ellipse;whiteSpace=wrap;html=1;align=center;" vertex="1" parent="1">
          <mxGeometry x="1360" y="1840" width="100" height="40" as="geometry" />
        </mxCell>
        <mxCell id="HLWwBx_t6MF1yC-M5vPN-14" value="estimated fuel consumption" style="ellipse;whiteSpace=wrap;html=1;align=center;" vertex="1" parent="1">
          <mxGeometry x="1360" y="1880" width="100" height="40" as="geometry" />
        </mxCell>
        <mxCell id="HLWwBx_t6MF1yC-M5vPN-15" value="actual departure and arrival times" style="ellipse;whiteSpace=wrap;html=1;align=center;" vertex="1" parent="1">
          <mxGeometry x="1360" y="1920" width="100" height="40" as="geometry" />
        </mxCell>
        <mxCell id="HLWwBx_t6MF1yC-M5vPN-16" value="&lt;u&gt;route id&lt;/u&gt;" style="ellipse;whiteSpace=wrap;html=1;align=center;" vertex="1" parent="1">
          <mxGeometry x="1730" y="1400" width="100" height="40" as="geometry" />
        </mxCell>
        <mxCell id="HLWwBx_t6MF1yC-M5vPN-17" value=" route &lt;br/&gt;description" style="ellipse;whiteSpace=wrap;html=1;align=center;" vertex="1" parent="1">
          <mxGeometry x="1730" y="1440" width="100" height="40" as="geometry" />
        </mxCell>
        <mxCell id="HLWwBx_t6MF1yC-M5vPN-18" value=" departure location" style="ellipse;whiteSpace=wrap;html=1;align=center;" vertex="1" parent="1">
          <mxGeometry x="1730" y="1480" width="100" height="40" as="geometry" />
        </mxCell>
        <mxCell id="HLWwBx_t6MF1yC-M5vPN-159" style="edgeStyle=orthogonalEdgeStyle;rounded=0;orthogonalLoop=1;jettySize=auto;html=1;exitX=0;exitY=0.5;exitDx=0;exitDy=0;entryX=0.5;entryY=0;entryDx=0;entryDy=0;endArrow=none;endFill=0;" edge="1" parent="1" source="HLWwBx_t6MF1yC-M5vPN-19" target="iUGONKCu862hK9h3Vl7b-10">
          <mxGeometry relative="1" as="geometry" />
        </mxCell>
        <mxCell id="HLWwBx_t6MF1yC-M5vPN-19" value=" arrival location" style="ellipse;whiteSpace=wrap;html=1;align=center;" vertex="1" parent="1">
          <mxGeometry x="1730" y="1520" width="100" height="40" as="geometry" />
        </mxCell>
        <mxCell id="HLWwBx_t6MF1yC-M5vPN-160" style="edgeStyle=orthogonalEdgeStyle;rounded=0;orthogonalLoop=1;jettySize=auto;html=1;exitX=0.5;exitY=0;exitDx=0;exitDy=0;entryX=0.5;entryY=1;entryDx=0;entryDy=0;endArrow=none;endFill=0;" edge="1" parent="1" source="HLWwBx_t6MF1yC-M5vPN-20" target="iUGONKCu862hK9h3Vl7b-11">
          <mxGeometry relative="1" as="geometry" />
        </mxCell>
        <mxCell id="HLWwBx_t6MF1yC-M5vPN-20" value="&lt;u&gt;3 letter airport code&lt;/u&gt;" style="ellipse;whiteSpace=wrap;html=1;align=center;" vertex="1" parent="1">
          <mxGeometry x="1700" y="1920" width="100" height="40" as="geometry" />
        </mxCell>
        <mxCell id="HLWwBx_t6MF1yC-M5vPN-21" value="country detail" style="ellipse;whiteSpace=wrap;html=1;align=center;" vertex="1" parent="1">
          <mxGeometry x="1700" y="1960" width="100" height="40" as="geometry" />
        </mxCell>
        <mxCell id="HLWwBx_t6MF1yC-M5vPN-22" value="address detail" style="ellipse;whiteSpace=wrap;html=1;align=center;" vertex="1" parent="1">
          <mxGeometry x="1700" y="2000" width="100" height="40" as="geometry" />
        </mxCell>
        <mxCell id="HLWwBx_t6MF1yC-M5vPN-23" value="contact details of the airport" style="ellipse;whiteSpace=wrap;html=1;align=center;" vertex="1" parent="1">
          <mxGeometry x="1700" y="2040" width="100" height="40" as="geometry" />
        </mxCell>
        <mxCell id="HLWwBx_t6MF1yC-M5vPN-157" style="edgeStyle=orthogonalEdgeStyle;rounded=0;orthogonalLoop=1;jettySize=auto;html=1;exitX=0;exitY=0.5;exitDx=0;exitDy=0;entryX=1;entryY=0.5;entryDx=0;entryDy=0;endArrow=none;endFill=0;" edge="1" parent="1" source="HLWwBx_t6MF1yC-M5vPN-28" target="iUGONKCu862hK9h3Vl7b-16">
          <mxGeometry relative="1" as="geometry" />
        </mxCell>
        <mxCell id="HLWwBx_t6MF1yC-M5vPN-28" value="&lt;u&gt;&amp;nbsp;unique aircraft number&lt;/u&gt;" style="ellipse;whiteSpace=wrap;html=1;align=center;" vertex="1" parent="1">
          <mxGeometry x="1620" y="1250" width="100" height="40" as="geometry" />
        </mxCell>
        <mxCell id="HLWwBx_t6MF1yC-M5vPN-158" style="edgeStyle=orthogonalEdgeStyle;rounded=0;orthogonalLoop=1;jettySize=auto;html=1;exitX=0.5;exitY=1;exitDx=0;exitDy=0;entryX=1;entryY=0.5;entryDx=0;entryDy=0;endArrow=none;endFill=0;" edge="1" parent="1" source="HLWwBx_t6MF1yC-M5vPN-29" target="iUGONKCu862hK9h3Vl7b-17">
          <mxGeometry relative="1" as="geometry" />
        </mxCell>
        <mxCell id="HLWwBx_t6MF1yC-M5vPN-29" value="&lt;u&gt;unique model id&lt;/u&gt;" style="ellipse;whiteSpace=wrap;html=1;align=center;" vertex="1" parent="1">
          <mxGeometry x="1620" y="980" width="100" height="40" as="geometry" />
        </mxCell>
        <mxCell id="HLWwBx_t6MF1yC-M5vPN-30" value="economy class seats" style="ellipse;whiteSpace=wrap;html=1;align=center;" vertex="1" parent="1">
          <mxGeometry x="1620" y="940" width="100" height="40" as="geometry" />
        </mxCell>
        <mxCell id="HLWwBx_t6MF1yC-M5vPN-31" value="business class seats" style="ellipse;whiteSpace=wrap;html=1;align=center;" vertex="1" parent="1">
          <mxGeometry x="1620" y="900" width="100" height="40" as="geometry" />
        </mxCell>
        <mxCell id="HLWwBx_t6MF1yC-M5vPN-32" value="first class seats" style="ellipse;whiteSpace=wrap;html=1;align=center;" vertex="1" parent="1">
          <mxGeometry x="1620" y="860" width="100" height="40" as="geometry" />
        </mxCell>
        <mxCell id="HLWwBx_t6MF1yC-M5vPN-33" value=" cargo capacity" style="ellipse;whiteSpace=wrap;html=1;align=center;" vertex="1" parent="1">
          <mxGeometry x="1620" y="820" width="100" height="40" as="geometry" />
        </mxCell>
        <mxCell id="HLWwBx_t6MF1yC-M5vPN-34" value=" fuel capacity" style="ellipse;whiteSpace=wrap;html=1;align=center;" vertex="1" parent="1">
          <mxGeometry x="1620" y="780" width="100" height="40" as="geometry" />
        </mxCell>
        <mxCell id="HLWwBx_t6MF1yC-M5vPN-35" value="length" style="ellipse;whiteSpace=wrap;html=1;align=center;" vertex="1" parent="1">
          <mxGeometry x="1620" y="740" width="100" height="40" as="geometry" />
        </mxCell>
        <mxCell id="HLWwBx_t6MF1yC-M5vPN-36" value=" wingspan" style="ellipse;whiteSpace=wrap;html=1;align=center;" vertex="1" parent="1">
          <mxGeometry x="1620" y="700" width="100" height="40" as="geometry" />
        </mxCell>
        <mxCell id="HLWwBx_t6MF1yC-M5vPN-170" style="edgeStyle=orthogonalEdgeStyle;rounded=0;orthogonalLoop=1;jettySize=auto;html=1;exitX=1;exitY=0.5;exitDx=0;exitDy=0;entryX=0;entryY=0.5;entryDx=0;entryDy=0;endArrow=none;endFill=0;" edge="1" parent="1" source="HLWwBx_t6MF1yC-M5vPN-37" target="iUGONKCu862hK9h3Vl7b-13">
          <mxGeometry relative="1" as="geometry" />
        </mxCell>
        <mxCell id="HLWwBx_t6MF1yC-M5vPN-37" value="&lt;u&gt;&amp;nbsp;unique customer number&lt;/u&gt;" style="ellipse;whiteSpace=wrap;html=1;align=center;" vertex="1" parent="1">
          <mxGeometry x="620" y="1460" width="100" height="40" as="geometry" />
        </mxCell>
        <mxCell id="HLWwBx_t6MF1yC-M5vPN-38" value="name" style="ellipse;whiteSpace=wrap;html=1;align=center;" vertex="1" parent="1">
          <mxGeometry x="620" y="1500" width="100" height="40" as="geometry" />
        </mxCell>
        <mxCell id="HLWwBx_t6MF1yC-M5vPN-39" value=" home address" style="ellipse;whiteSpace=wrap;html=1;align=center;" vertex="1" parent="1">
          <mxGeometry x="620" y="1540" width="100" height="40" as="geometry" />
        </mxCell>
        <mxCell id="HLWwBx_t6MF1yC-M5vPN-40" value="home country" style="ellipse;whiteSpace=wrap;html=1;align=center;" vertex="1" parent="1">
          <mxGeometry x="620" y="1580" width="100" height="40" as="geometry" />
        </mxCell>
        <mxCell id="HLWwBx_t6MF1yC-M5vPN-41" value="birth date" style="ellipse;whiteSpace=wrap;html=1;align=center;" vertex="1" parent="1">
          <mxGeometry x="620" y="1620" width="100" height="40" as="geometry" />
        </mxCell>
        <mxCell id="HLWwBx_t6MF1yC-M5vPN-42" value=" passport number" style="ellipse;whiteSpace=wrap;html=1;align=center;" vertex="1" parent="1">
          <mxGeometry x="620" y="1660" width="100" height="40" as="geometry" />
        </mxCell>
        <mxCell id="HLWwBx_t6MF1yC-M5vPN-43" value="email" style="ellipse;whiteSpace=wrap;html=1;align=center;" vertex="1" parent="1">
          <mxGeometry x="620" y="1700" width="100" height="40" as="geometry" />
        </mxCell>
        <mxCell id="HLWwBx_t6MF1yC-M5vPN-44" value="phone number" style="ellipse;whiteSpace=wrap;html=1;align=center;" vertex="1" parent="1">
          <mxGeometry x="620" y="1740" width="100" height="40" as="geometry" />
        </mxCell>
        <mxCell id="HLWwBx_t6MF1yC-M5vPN-45" value="&lt;u&gt; unique ticket number&lt;/u&gt;" style="ellipse;whiteSpace=wrap;html=1;align=center;" vertex="1" parent="1">
          <mxGeometry x="1160" y="1245" width="100" height="40" as="geometry" />
        </mxCell>
        <mxCell id="HLWwBx_t6MF1yC-M5vPN-46" value=" checked luggage limit" style="ellipse;whiteSpace=wrap;html=1;align=center;" vertex="1" parent="1">
          <mxGeometry x="1160" y="1205" width="100" height="40" as="geometry" />
        </mxCell>
        <mxCell id="HLWwBx_t6MF1yC-M5vPN-47" value=" seat number" style="ellipse;whiteSpace=wrap;html=1;align=center;" vertex="1" parent="1">
          <mxGeometry x="1160" y="1160" width="100" height="40" as="geometry" />
        </mxCell>
        <mxCell id="HLWwBx_t6MF1yC-M5vPN-48" value="food allergies" style="ellipse;whiteSpace=wrap;html=1;align=center;" vertex="1" parent="1">
          <mxGeometry x="1160" y="1120" width="100" height="40" as="geometry" />
        </mxCell>
        <mxCell id="HLWwBx_t6MF1yC-M5vPN-49" value="medical &lt;br/&gt;conditions" style="ellipse;whiteSpace=wrap;html=1;align=center;" vertex="1" parent="1">
          <mxGeometry x="1160" y="1080" width="100" height="40" as="geometry" />
        </mxCell>
        <mxCell id="HLWwBx_t6MF1yC-M5vPN-55" style="edgeStyle=orthogonalEdgeStyle;rounded=0;orthogonalLoop=1;jettySize=auto;html=1;exitX=0.5;exitY=0;exitDx=0;exitDy=0;entryX=0.5;entryY=1;entryDx=0;entryDy=0;endArrow=none;endFill=0;" edge="1" parent="1" source="HLWwBx_t6MF1yC-M5vPN-51" target="HLWwBx_t6MF1yC-M5vPN-54">
          <mxGeometry relative="1" as="geometry" />
        </mxCell>
        <mxCell id="HLWwBx_t6MF1yC-M5vPN-51" value="check" style="shape=rhombus;perimeter=rhombusPerimeter;whiteSpace=wrap;html=1;align=center;" vertex="1" parent="1">
          <mxGeometry x="1290" y="1060" width="120" height="60" as="geometry" />
        </mxCell>
        <mxCell id="HLWwBx_t6MF1yC-M5vPN-54" value="ticket availability " style="ellipse;whiteSpace=wrap;html=1;align=center;" vertex="1" parent="1">
          <mxGeometry x="1300" y="960" width="100" height="40" as="geometry" />
        </mxCell>
        <mxCell id="HLWwBx_t6MF1yC-M5vPN-59" value="regular" style="whiteSpace=wrap;html=1;align=center;" vertex="1" parent="1">
          <mxGeometry x="740" y="1020" width="100" height="40" as="geometry" />
        </mxCell>
        <mxCell id="HLWwBx_t6MF1yC-M5vPN-62" style="edgeStyle=orthogonalEdgeStyle;rounded=0;orthogonalLoop=1;jettySize=auto;html=1;exitX=0.5;exitY=1;exitDx=0;exitDy=0;endArrow=none;endFill=0;" edge="1" parent="1" source="HLWwBx_t6MF1yC-M5vPN-60">
          <mxGeometry relative="1" as="geometry">
            <mxPoint x="870" y="1150" as="targetPoint" />
          </mxGeometry>
        </mxCell>
        <mxCell id="HLWwBx_t6MF1yC-M5vPN-63" value="&lt;font style=&quot;font-size: 15px;&quot;&gt;disjoin&lt;/font&gt;" style="edgeLabel;html=1;align=center;verticalAlign=middle;resizable=0;points=[];" vertex="1" connectable="0" parent="HLWwBx_t6MF1yC-M5vPN-62">
          <mxGeometry x="0.6566" y="-1" relative="1" as="geometry">
            <mxPoint as="offset" />
          </mxGeometry>
        </mxCell>
        <mxCell id="HLWwBx_t6MF1yC-M5vPN-60" value="vegan and gluten free" style="whiteSpace=wrap;html=1;align=center;" vertex="1" parent="1">
          <mxGeometry x="900" y="1020" width="100" height="40" as="geometry" />
        </mxCell>
        <mxCell id="HLWwBx_t6MF1yC-M5vPN-64" value="passport number" style="ellipse;whiteSpace=wrap;html=1;align=center;" vertex="1" parent="1">
          <mxGeometry x="800" y="1550" width="100" height="40" as="geometry" />
        </mxCell>
        <mxCell id="HLWwBx_t6MF1yC-M5vPN-65" value="phone number" style="ellipse;whiteSpace=wrap;html=1;align=center;" vertex="1" parent="1">
          <mxGeometry x="800" y="1590" width="100" height="40" as="geometry" />
        </mxCell>
        <mxCell id="HLWwBx_t6MF1yC-M5vPN-66" value="email" style="ellipse;whiteSpace=wrap;html=1;align=center;" vertex="1" parent="1">
          <mxGeometry x="800" y="1630" width="100" height="40" as="geometry" />
        </mxCell>
        <mxCell id="HLWwBx_t6MF1yC-M5vPN-67" value="address" style="ellipse;whiteSpace=wrap;html=1;align=center;" vertex="1" parent="1">
          <mxGeometry x="800" y="1670" width="100" height="40" as="geometry" />
        </mxCell>
        <mxCell id="HLWwBx_t6MF1yC-M5vPN-68" value="&amp;nbsp;name" style="ellipse;whiteSpace=wrap;html=1;align=center;" vertex="1" parent="1">
          <mxGeometry x="800" y="1710" width="100" height="40" as="geometry" />
        </mxCell>
        <mxCell id="HLWwBx_t6MF1yC-M5vPN-69" value="&lt;u&gt;id&lt;/u&gt;" style="ellipse;whiteSpace=wrap;html=1;align=center;" vertex="1" parent="1">
          <mxGeometry x="800" y="1750" width="100" height="40" as="geometry" />
        </mxCell>
        <mxCell id="HLWwBx_t6MF1yC-M5vPN-72" value="&amp;nbsp;hours &lt;br&gt;of prior flight experience" style="ellipse;whiteSpace=wrap;html=1;align=center;" vertex="1" parent="1">
          <mxGeometry x="1190" y="1930" width="100" height="40" as="geometry" />
        </mxCell>
        <mxCell id="HLWwBx_t6MF1yC-M5vPN-73" value="qualifications" style="ellipse;shape=doubleEllipse;margin=3;whiteSpace=wrap;html=1;align=center;" vertex="1" parent="1">
          <mxGeometry x="1190" y="1890" width="100" height="40" as="geometry" />
        </mxCell>
        <mxCell id="HLWwBx_t6MF1yC-M5vPN-161" style="edgeStyle=orthogonalEdgeStyle;rounded=0;orthogonalLoop=1;jettySize=auto;html=1;exitX=0.5;exitY=1;exitDx=0;exitDy=0;entryX=1;entryY=0.5;entryDx=0;entryDy=0;endArrow=none;endFill=0;" edge="1" parent="1" source="HLWwBx_t6MF1yC-M5vPN-75" target="iUGONKCu862hK9h3Vl7b-24">
          <mxGeometry relative="1" as="geometry" />
        </mxCell>
        <mxCell id="HLWwBx_t6MF1yC-M5vPN-75" value="&lt;u&gt;activity code&lt;/u&gt;" style="ellipse;whiteSpace=wrap;html=1;align=center;" vertex="1" parent="1">
          <mxGeometry x="1190" y="1970" width="100" height="40" as="geometry" />
        </mxCell>
        <mxCell id="HLWwBx_t6MF1yC-M5vPN-76" value="Relationship" style="shape=rhombus;perimeter=rhombusPerimeter;whiteSpace=wrap;html=1;align=center;" vertex="1" parent="1">
          <mxGeometry x="1100" y="1730" width="120" height="60" as="geometry" />
        </mxCell>
        <mxCell id="HLWwBx_t6MF1yC-M5vPN-79" value="" style="shape=link;html=1;rounded=0;entryX=0.5;entryY=1;entryDx=0;entryDy=0;exitX=1;exitY=0.5;exitDx=0;exitDy=0;" edge="1" parent="1" source="HLWwBx_t6MF1yC-M5vPN-76" target="iUGONKCu862hK9h3Vl7b-9">
          <mxGeometry relative="1" as="geometry">
            <mxPoint x="1200" y="1710" as="sourcePoint" />
            <mxPoint x="1360" y="1710" as="targetPoint" />
            <Array as="points">
              <mxPoint x="1290" y="1760" />
            </Array>
          </mxGeometry>
        </mxCell>
        <mxCell id="HLWwBx_t6MF1yC-M5vPN-80" value="1" style="resizable=0;html=1;whiteSpace=wrap;align=right;verticalAlign=bottom;" connectable="0" vertex="1" parent="HLWwBx_t6MF1yC-M5vPN-79">
          <mxGeometry x="1" relative="1" as="geometry" />
        </mxCell>
        <mxCell id="HLWwBx_t6MF1yC-M5vPN-81" value="(2,M)" style="text;html=1;align=center;verticalAlign=middle;resizable=0;points=[];autosize=1;strokeColor=none;fillColor=none;" vertex="1" parent="1">
          <mxGeometry x="1230" y="1660" width="50" height="30" as="geometry" />
        </mxCell>
        <mxCell id="HLWwBx_t6MF1yC-M5vPN-86" value="" style="shape=link;html=1;rounded=0;entryX=1;entryY=0.5;entryDx=0;entryDy=0;exitX=0.5;exitY=1;exitDx=0;exitDy=0;" edge="1" parent="1" source="HLWwBx_t6MF1yC-M5vPN-76" target="iUGONKCu862hK9h3Vl7b-22">
          <mxGeometry relative="1" as="geometry">
            <mxPoint x="1090" y="1838.82" as="sourcePoint" />
            <mxPoint x="1250" y="1838.82" as="targetPoint" />
            <Array as="points">
              <mxPoint x="1160" y="1850" />
            </Array>
          </mxGeometry>
        </mxCell>
        <mxCell id="HLWwBx_t6MF1yC-M5vPN-87" value="N" style="resizable=0;html=1;whiteSpace=wrap;align=right;verticalAlign=bottom;" connectable="0" vertex="1" parent="HLWwBx_t6MF1yC-M5vPN-86">
          <mxGeometry x="1" relative="1" as="geometry" />
        </mxCell>
        <mxCell id="HLWwBx_t6MF1yC-M5vPN-88" value="(1,1)" style="text;html=1;align=center;verticalAlign=middle;resizable=0;points=[];autosize=1;strokeColor=none;fillColor=none;" vertex="1" parent="1">
          <mxGeometry x="1040" y="1810" width="50" height="30" as="geometry" />
        </mxCell>
        <mxCell id="HLWwBx_t6MF1yC-M5vPN-89" value="takes" style="shape=rhombus;perimeter=rhombusPerimeter;whiteSpace=wrap;html=1;align=center;" vertex="1" parent="1">
          <mxGeometry x="1420" y="1600" width="120" height="60" as="geometry" />
        </mxCell>
        <mxCell id="HLWwBx_t6MF1yC-M5vPN-90" value="" style="shape=link;html=1;rounded=0;entryX=1;entryY=0.5;entryDx=0;entryDy=0;exitX=0;exitY=0.5;exitDx=0;exitDy=0;" edge="1" parent="1" source="HLWwBx_t6MF1yC-M5vPN-89" target="iUGONKCu862hK9h3Vl7b-9">
          <mxGeometry relative="1" as="geometry">
            <mxPoint x="1300" y="1548.82" as="sourcePoint" />
            <mxPoint x="1460" y="1548.82" as="targetPoint" />
          </mxGeometry>
        </mxCell>
        <mxCell id="HLWwBx_t6MF1yC-M5vPN-91" value="N" style="resizable=0;html=1;whiteSpace=wrap;align=right;verticalAlign=bottom;" connectable="0" vertex="1" parent="HLWwBx_t6MF1yC-M5vPN-90">
          <mxGeometry x="1" relative="1" as="geometry" />
        </mxCell>
        <mxCell id="HLWwBx_t6MF1yC-M5vPN-92" value="(1,1)" style="text;html=1;align=center;verticalAlign=middle;resizable=0;points=[];autosize=1;strokeColor=none;fillColor=none;" vertex="1" parent="1">
          <mxGeometry x="1335" y="1638" width="50" height="30" as="geometry" />
        </mxCell>
        <mxCell id="HLWwBx_t6MF1yC-M5vPN-93" value="" style="endArrow=none;html=1;rounded=0;entryX=0;entryY=0.5;entryDx=0;entryDy=0;" edge="1" parent="1" target="iUGONKCu862hK9h3Vl7b-10">
          <mxGeometry relative="1" as="geometry">
            <mxPoint x="1540" y="1630" as="sourcePoint" />
            <mxPoint x="1620" y="1628.82" as="targetPoint" />
          </mxGeometry>
        </mxCell>
        <mxCell id="HLWwBx_t6MF1yC-M5vPN-94" value="1" style="resizable=0;html=1;whiteSpace=wrap;align=right;verticalAlign=bottom;" connectable="0" vertex="1" parent="HLWwBx_t6MF1yC-M5vPN-93">
          <mxGeometry x="1" relative="1" as="geometry" />
        </mxCell>
        <mxCell id="HLWwBx_t6MF1yC-M5vPN-95" value="(0,M)" style="text;html=1;align=center;verticalAlign=middle;resizable=0;points=[];autosize=1;strokeColor=none;fillColor=none;" vertex="1" parent="1">
          <mxGeometry x="1570" y="1640" width="50" height="30" as="geometry" />
        </mxCell>
        <mxCell id="HLWwBx_t6MF1yC-M5vPN-96" value="depart/arrive" style="shape=rhombus;perimeter=rhombusPerimeter;whiteSpace=wrap;html=1;align=center;" vertex="1" parent="1">
          <mxGeometry x="1610" y="1710" width="120" height="60" as="geometry" />
        </mxCell>
        <mxCell id="HLWwBx_t6MF1yC-M5vPN-97" value="" style="shape=link;html=1;rounded=0;entryX=0.5;entryY=1;entryDx=0;entryDy=0;exitX=0.5;exitY=0;exitDx=0;exitDy=0;" edge="1" parent="1" source="HLWwBx_t6MF1yC-M5vPN-96" target="iUGONKCu862hK9h3Vl7b-10">
          <mxGeometry relative="1" as="geometry">
            <mxPoint x="1750" y="1690" as="sourcePoint" />
            <mxPoint x="1910" y="1690" as="targetPoint" />
          </mxGeometry>
        </mxCell>
        <mxCell id="HLWwBx_t6MF1yC-M5vPN-98" value="N" style="resizable=0;html=1;whiteSpace=wrap;align=right;verticalAlign=bottom;" connectable="0" vertex="1" parent="HLWwBx_t6MF1yC-M5vPN-97">
          <mxGeometry x="1" relative="1" as="geometry" />
        </mxCell>
        <mxCell id="HLWwBx_t6MF1yC-M5vPN-99" value="(1,1)" style="text;html=1;align=center;verticalAlign=middle;resizable=0;points=[];autosize=1;strokeColor=none;fillColor=none;" vertex="1" parent="1">
          <mxGeometry x="1670" y="1650" width="50" height="30" as="geometry" />
        </mxCell>
        <mxCell id="HLWwBx_t6MF1yC-M5vPN-100" value="" style="endArrow=none;html=1;rounded=0;entryX=0.5;entryY=0;entryDx=0;entryDy=0;exitX=0.5;exitY=1;exitDx=0;exitDy=0;" edge="1" parent="1" source="HLWwBx_t6MF1yC-M5vPN-96" target="iUGONKCu862hK9h3Vl7b-11">
          <mxGeometry relative="1" as="geometry">
            <mxPoint x="1500" y="1820" as="sourcePoint" />
            <mxPoint x="1660" y="1820" as="targetPoint" />
          </mxGeometry>
        </mxCell>
        <mxCell id="HLWwBx_t6MF1yC-M5vPN-101" value="1" style="resizable=0;html=1;whiteSpace=wrap;align=right;verticalAlign=bottom;" connectable="0" vertex="1" parent="HLWwBx_t6MF1yC-M5vPN-100">
          <mxGeometry x="1" relative="1" as="geometry" />
        </mxCell>
        <mxCell id="HLWwBx_t6MF1yC-M5vPN-102" value="(0,M)" style="text;html=1;align=center;verticalAlign=middle;resizable=0;points=[];autosize=1;strokeColor=none;fillColor=none;" vertex="1" parent="1">
          <mxGeometry x="1670" y="1805" width="50" height="30" as="geometry" />
        </mxCell>
        <mxCell id="HLWwBx_t6MF1yC-M5vPN-103" value="use" style="shape=rhombus;perimeter=rhombusPerimeter;whiteSpace=wrap;html=1;align=center;" vertex="1" parent="1">
          <mxGeometry x="1335" y="1420" width="120" height="60" as="geometry" />
        </mxCell>
        <mxCell id="HLWwBx_t6MF1yC-M5vPN-104" value="" style="endArrow=none;html=1;rounded=0;exitX=1;exitY=0.5;exitDx=0;exitDy=0;entryX=0.5;entryY=1;entryDx=0;entryDy=0;" edge="1" parent="1" source="HLWwBx_t6MF1yC-M5vPN-103" target="iUGONKCu862hK9h3Vl7b-16">
          <mxGeometry relative="1" as="geometry">
            <mxPoint x="1430" y="1500" as="sourcePoint" />
            <mxPoint x="1590" y="1500" as="targetPoint" />
            <Array as="points">
              <mxPoint x="1520" y="1450" />
            </Array>
          </mxGeometry>
        </mxCell>
        <mxCell id="HLWwBx_t6MF1yC-M5vPN-105" value="1" style="resizable=0;html=1;whiteSpace=wrap;align=right;verticalAlign=bottom;" connectable="0" vertex="1" parent="HLWwBx_t6MF1yC-M5vPN-104">
          <mxGeometry x="1" relative="1" as="geometry" />
        </mxCell>
        <mxCell id="HLWwBx_t6MF1yC-M5vPN-106" value="" style="shape=link;html=1;rounded=0;entryX=0.5;entryY=0;entryDx=0;entryDy=0;exitX=0;exitY=0.5;exitDx=0;exitDy=0;" edge="1" parent="1" source="HLWwBx_t6MF1yC-M5vPN-103" target="iUGONKCu862hK9h3Vl7b-9">
          <mxGeometry relative="1" as="geometry">
            <mxPoint x="1430" y="1500" as="sourcePoint" />
            <mxPoint x="1590" y="1500" as="targetPoint" />
            <Array as="points">
              <mxPoint x="1290" y="1450" />
            </Array>
          </mxGeometry>
        </mxCell>
        <mxCell id="HLWwBx_t6MF1yC-M5vPN-107" value="N" style="resizable=0;html=1;whiteSpace=wrap;align=right;verticalAlign=bottom;" connectable="0" vertex="1" parent="HLWwBx_t6MF1yC-M5vPN-106">
          <mxGeometry x="1" relative="1" as="geometry" />
        </mxCell>
        <mxCell id="HLWwBx_t6MF1yC-M5vPN-108" value="(0,M)" style="text;html=1;align=center;verticalAlign=middle;resizable=0;points=[];autosize=1;strokeColor=none;fillColor=none;" vertex="1" parent="1">
          <mxGeometry x="1535" y="1358" width="50" height="30" as="geometry" />
        </mxCell>
        <mxCell id="HLWwBx_t6MF1yC-M5vPN-109" value="(1,1)" style="text;html=1;align=center;verticalAlign=middle;resizable=0;points=[];autosize=1;strokeColor=none;fillColor=none;" vertex="1" parent="1">
          <mxGeometry x="1305" y="1568" width="50" height="30" as="geometry" />
        </mxCell>
        <mxCell id="HLWwBx_t6MF1yC-M5vPN-110" value="belongs to" style="shape=rhombus;perimeter=rhombusPerimeter;whiteSpace=wrap;html=1;align=center;" vertex="1" parent="1">
          <mxGeometry x="1460" y="1185" width="120" height="60" as="geometry" />
        </mxCell>
        <mxCell id="HLWwBx_t6MF1yC-M5vPN-116" value="" style="shape=link;html=1;rounded=0;entryX=0.5;entryY=1;entryDx=0;entryDy=0;exitX=0.5;exitY=0;exitDx=0;exitDy=0;" edge="1" parent="1" source="HLWwBx_t6MF1yC-M5vPN-110" target="iUGONKCu862hK9h3Vl7b-17">
          <mxGeometry relative="1" as="geometry">
            <mxPoint x="1550" y="1158.82" as="sourcePoint" />
            <mxPoint x="1710" y="1158.82" as="targetPoint" />
          </mxGeometry>
        </mxCell>
        <mxCell id="HLWwBx_t6MF1yC-M5vPN-117" value="1" style="resizable=0;html=1;whiteSpace=wrap;align=right;verticalAlign=bottom;" connectable="0" vertex="1" parent="HLWwBx_t6MF1yC-M5vPN-116">
          <mxGeometry x="1" relative="1" as="geometry" />
        </mxCell>
        <mxCell id="HLWwBx_t6MF1yC-M5vPN-118" value="(1,M)" style="text;html=1;align=center;verticalAlign=middle;resizable=0;points=[];autosize=1;strokeColor=none;fillColor=none;" vertex="1" parent="1">
          <mxGeometry x="1525" y="1118" width="50" height="30" as="geometry" />
        </mxCell>
        <mxCell id="HLWwBx_t6MF1yC-M5vPN-121" value="" style="shape=link;html=1;rounded=0;exitX=0.5;exitY=1;exitDx=0;exitDy=0;entryX=0.5;entryY=0;entryDx=0;entryDy=0;" edge="1" parent="1" source="HLWwBx_t6MF1yC-M5vPN-110" target="iUGONKCu862hK9h3Vl7b-16">
          <mxGeometry relative="1" as="geometry">
            <mxPoint x="1450" y="1285" as="sourcePoint" />
            <mxPoint x="1610" y="1285" as="targetPoint" />
          </mxGeometry>
        </mxCell>
        <mxCell id="HLWwBx_t6MF1yC-M5vPN-122" value="N" style="resizable=0;html=1;whiteSpace=wrap;align=right;verticalAlign=bottom;" connectable="0" vertex="1" parent="HLWwBx_t6MF1yC-M5vPN-121">
          <mxGeometry x="1" relative="1" as="geometry" />
        </mxCell>
        <mxCell id="HLWwBx_t6MF1yC-M5vPN-123" value="(1,1)" style="text;html=1;align=center;verticalAlign=middle;resizable=0;points=[];autosize=1;strokeColor=none;fillColor=none;" vertex="1" parent="1">
          <mxGeometry x="1525" y="1290" width="50" height="30" as="geometry" />
        </mxCell>
        <mxCell id="HLWwBx_t6MF1yC-M5vPN-127" value="uses" style="shape=rhombus;perimeter=rhombusPerimeter;whiteSpace=wrap;html=1;align=center;" vertex="1" parent="1">
          <mxGeometry x="1120" y="1450" width="120" height="60" as="geometry" />
        </mxCell>
        <mxCell id="HLWwBx_t6MF1yC-M5vPN-128" value="own" style="shape=rhombus;perimeter=rhombusPerimeter;whiteSpace=wrap;html=1;align=center;" vertex="1" parent="1">
          <mxGeometry x="920" y="1375" width="120" height="60" as="geometry" />
        </mxCell>
        <mxCell id="HLWwBx_t6MF1yC-M5vPN-137" value="" style="shape=link;html=1;rounded=0;entryX=0;entryY=1;entryDx=0;entryDy=0;exitX=0.5;exitY=0;exitDx=0;exitDy=0;" edge="1" parent="1" source="HLWwBx_t6MF1yC-M5vPN-128" target="iUGONKCu862hK9h3Vl7b-12">
          <mxGeometry relative="1" as="geometry">
            <mxPoint x="990" y="1375" as="sourcePoint" />
            <mxPoint x="1150" y="1375" as="targetPoint" />
          </mxGeometry>
        </mxCell>
        <mxCell id="HLWwBx_t6MF1yC-M5vPN-138" value="1" style="resizable=0;html=1;whiteSpace=wrap;align=right;verticalAlign=bottom;" connectable="0" vertex="1" parent="HLWwBx_t6MF1yC-M5vPN-137">
          <mxGeometry x="1" relative="1" as="geometry" />
        </mxCell>
        <mxCell id="HLWwBx_t6MF1yC-M5vPN-139" value="" style="shape=link;html=1;rounded=0;exitX=0.5;exitY=1;exitDx=0;exitDy=0;entryX=1;entryY=0;entryDx=0;entryDy=0;" edge="1" parent="1" source="HLWwBx_t6MF1yC-M5vPN-128" target="iUGONKCu862hK9h3Vl7b-13">
          <mxGeometry relative="1" as="geometry">
            <mxPoint x="930" y="1470" as="sourcePoint" />
            <mxPoint x="1090" y="1470" as="targetPoint" />
          </mxGeometry>
        </mxCell>
        <mxCell id="HLWwBx_t6MF1yC-M5vPN-140" value="1" style="resizable=0;html=1;whiteSpace=wrap;align=right;verticalAlign=bottom;" connectable="0" vertex="1" parent="HLWwBx_t6MF1yC-M5vPN-139">
          <mxGeometry x="1" relative="1" as="geometry" />
        </mxCell>
        <mxCell id="HLWwBx_t6MF1yC-M5vPN-141" value="(1,1)" style="text;html=1;align=center;verticalAlign=middle;resizable=0;points=[];autosize=1;strokeColor=none;fillColor=none;" vertex="1" parent="1">
          <mxGeometry x="1015" y="1338" width="50" height="30" as="geometry" />
        </mxCell>
        <mxCell id="HLWwBx_t6MF1yC-M5vPN-142" value="(1,1)" style="text;html=1;align=center;verticalAlign=middle;resizable=0;points=[];autosize=1;strokeColor=none;fillColor=none;" vertex="1" parent="1">
          <mxGeometry x="915" y="1458" width="50" height="30" as="geometry" />
        </mxCell>
        <mxCell id="HLWwBx_t6MF1yC-M5vPN-143" value="" style="shape=link;html=1;rounded=0;entryX=1;entryY=1;entryDx=0;entryDy=0;exitX=0;exitY=0.5;exitDx=0;exitDy=0;" edge="1" parent="1" source="HLWwBx_t6MF1yC-M5vPN-127" target="iUGONKCu862hK9h3Vl7b-12">
          <mxGeometry relative="1" as="geometry">
            <mxPoint x="1150" y="1400" as="sourcePoint" />
            <mxPoint x="1310" y="1400" as="targetPoint" />
          </mxGeometry>
        </mxCell>
        <mxCell id="HLWwBx_t6MF1yC-M5vPN-144" value="N" style="resizable=0;html=1;whiteSpace=wrap;align=right;verticalAlign=bottom;" connectable="0" vertex="1" parent="HLWwBx_t6MF1yC-M5vPN-143">
          <mxGeometry x="1" relative="1" as="geometry" />
        </mxCell>
        <mxCell id="HLWwBx_t6MF1yC-M5vPN-145" value="(1,1)" style="text;html=1;align=center;verticalAlign=middle;resizable=0;points=[];autosize=1;strokeColor=none;fillColor=none;" vertex="1" parent="1">
          <mxGeometry x="1115" y="1338" width="50" height="30" as="geometry" />
        </mxCell>
        <mxCell id="HLWwBx_t6MF1yC-M5vPN-146" value="" style="shape=link;html=1;rounded=0;exitX=1;exitY=0.5;exitDx=0;exitDy=0;entryX=0;entryY=0;entryDx=0;entryDy=0;" edge="1" parent="1" source="HLWwBx_t6MF1yC-M5vPN-127" target="iUGONKCu862hK9h3Vl7b-9">
          <mxGeometry relative="1" as="geometry">
            <mxPoint x="1070" y="1610" as="sourcePoint" />
            <mxPoint x="1230" y="1610" as="targetPoint" />
          </mxGeometry>
        </mxCell>
        <mxCell id="HLWwBx_t6MF1yC-M5vPN-147" value="1" style="resizable=0;html=1;whiteSpace=wrap;align=right;verticalAlign=bottom;" connectable="0" vertex="1" parent="HLWwBx_t6MF1yC-M5vPN-146">
          <mxGeometry x="1" relative="1" as="geometry" />
        </mxCell>
        <mxCell id="HLWwBx_t6MF1yC-M5vPN-148" value="(1,M)" style="text;html=1;align=center;verticalAlign=middle;resizable=0;points=[];autosize=1;strokeColor=none;fillColor=none;" vertex="1" parent="1">
          <mxGeometry x="1185" y="1570" width="50" height="30" as="geometry" />
        </mxCell>
        <mxCell id="HLWwBx_t6MF1yC-M5vPN-150" value="may has" style="shape=rhombus;perimeter=rhombusPerimeter;whiteSpace=wrap;html=1;align=center;" vertex="1" parent="1">
          <mxGeometry x="1010" y="1140" width="120" height="60" as="geometry" />
        </mxCell>
        <mxCell id="HLWwBx_t6MF1yC-M5vPN-151" value="" style="endArrow=none;html=1;rounded=0;dashed=1;dashPattern=1 2;entryX=1;entryY=0.5;entryDx=0;entryDy=0;exitX=0;exitY=0.5;exitDx=0;exitDy=0;" edge="1" parent="1" source="HLWwBx_t6MF1yC-M5vPN-150" target="iUGONKCu862hK9h3Vl7b-63">
          <mxGeometry relative="1" as="geometry">
            <mxPoint x="940" y="1230" as="sourcePoint" />
            <mxPoint x="1100" y="1230" as="targetPoint" />
          </mxGeometry>
        </mxCell>
        <mxCell id="HLWwBx_t6MF1yC-M5vPN-152" value="1" style="resizable=0;html=1;whiteSpace=wrap;align=right;verticalAlign=bottom;" connectable="0" vertex="1" parent="HLWwBx_t6MF1yC-M5vPN-151">
          <mxGeometry x="1" relative="1" as="geometry" />
        </mxCell>
        <mxCell id="HLWwBx_t6MF1yC-M5vPN-153" value="" style="endArrow=none;html=1;rounded=0;dashed=1;dashPattern=1 2;entryX=0.5;entryY=0;entryDx=0;entryDy=0;exitX=0.5;exitY=1;exitDx=0;exitDy=0;" edge="1" parent="1" source="HLWwBx_t6MF1yC-M5vPN-150" target="iUGONKCu862hK9h3Vl7b-12">
          <mxGeometry relative="1" as="geometry">
            <mxPoint x="985" y="1250" as="sourcePoint" />
            <mxPoint x="1145" y="1250" as="targetPoint" />
          </mxGeometry>
        </mxCell>
        <mxCell id="HLWwBx_t6MF1yC-M5vPN-154" value="1" style="resizable=0;html=1;whiteSpace=wrap;align=right;verticalAlign=bottom;" connectable="0" vertex="1" parent="HLWwBx_t6MF1yC-M5vPN-153">
          <mxGeometry x="1" relative="1" as="geometry" />
        </mxCell>
        <mxCell id="HLWwBx_t6MF1yC-M5vPN-155" value="(0,1)" style="text;html=1;align=center;verticalAlign=middle;resizable=0;points=[];autosize=1;strokeColor=none;fillColor=none;" vertex="1" parent="1">
          <mxGeometry x="915" y="1178" width="50" height="30" as="geometry" />
        </mxCell>
        <mxCell id="HLWwBx_t6MF1yC-M5vPN-156" value="(0,1)" style="text;html=1;align=center;verticalAlign=middle;resizable=0;points=[];autosize=1;strokeColor=none;fillColor=none;" vertex="1" parent="1">
          <mxGeometry x="1075" y="1258" width="50" height="30" as="geometry" />
        </mxCell>
        <mxCell id="HLWwBx_t6MF1yC-M5vPN-163" style="edgeStyle=orthogonalEdgeStyle;rounded=0;orthogonalLoop=1;jettySize=auto;html=1;exitX=1;exitY=0.5;exitDx=0;exitDy=0;entryX=0;entryY=0.5;entryDx=0;entryDy=0;endArrow=none;endFill=0;" edge="1" parent="1" source="HLWwBx_t6MF1yC-M5vPN-162" target="iUGONKCu862hK9h3Vl7b-23">
          <mxGeometry relative="1" as="geometry" />
        </mxCell>
        <mxCell id="HLWwBx_t6MF1yC-M5vPN-162" value="details about the participating" style="ellipse;whiteSpace=wrap;html=1;align=center;" vertex="1" parent="1">
          <mxGeometry x="650" y="2010" width="100" height="40" as="geometry" />
        </mxCell>
      </root>
    </mxGraphModel>
  </diagram>
</mxfile>
